<?xml version="1.0" standalone="no"?>
<!DOCTYPE svg PUBLIC "-//W3C//DTD SVG 20010904//EN"
 "http://www.w3.org/TR/2001/REC-SVG-20010904/DTD/svg10.dtd">
<svg version="1.0" xmlns="http://www.w3.org/2000/svg"
 width="1350.000000pt" height="1350.000000pt" viewBox="0 0 1350.000000 1350.000000"
 preserveAspectRatio="xMidYMid meet">
<metadata>
Created by potrace 1.10, written by Peter Selinger 2001-2011
</metadata>
<g transform="translate(0.000000,1350.000000) scale(0.100000,-0.100000)"
fill="#ffffff" stroke="none">
<path d="M6435 12784 c-231 -23 -409 -51 -625 -98 -130 -28 -280 -68 -320 -84
-14 -6 -54 -19 -90 -31 -36 -11 -90 -30 -120 -41 -30 -12 -66 -25 -80 -29 -62
-20 -359 -164 -468 -228 -41 -24 -76 -43 -78 -43 -3 0 -17 -8 -32 -18 -15 -11
-87 -58 -160 -107 -168 -111 -372 -273 -531 -423 -68 -64 -130 -121 -138 -125
-16 -10 -159 15 -223 38 -127 46 -289 143 -419 249 -68 56 -226 216 -293 296
-44 52 -50 37 -19 -45 126 -342 384 -750 723 -1147 221 -260 550 -588 813
-814 44 -38 82 -71 85 -74 45 -47 463 -372 600 -465 199 -137 440 -295 470
-308 8 -4 29 -16 45 -27 17 -11 39 -24 50 -30 11 -6 36 -20 55 -31 50 -31 121
-69 248 -134 126 -64 101 -67 244 21 166 101 378 163 564 164 68 0 224 -23
299 -44 96 -27 233 -92 322 -151 37 -25 71 -45 76 -45 5 0 28 10 51 21 22 12
48 25 57 29 69 35 227 121 310 170 55 33 103 60 105 60 3 0 17 9 32 19 15 10
106 71 202 134 150 98 252 170 465 328 22 17 55 42 74 57 19 15 49 38 67 52
39 30 116 94 165 135 19 16 57 48 84 70 26 22 53 45 59 50 6 6 49 44 96 84
111 97 536 521 620 618 36 42 72 83 80 92 15 17 58 69 140 170 152 187 322
437 425 627 104 189 202 417 193 446 -2 6 -36 -27 -75 -73 -245 -289 -559
-496 -817 -539 -81 -13 -77 -15 -186 90 -336 325 -782 626 -1169 792 -52 22
-101 43 -110 48 -9 4 -36 16 -61 25 -25 9 -60 23 -78 31 -18 8 -39 14 -47 14
-8 0 -29 6 -47 14 -18 7 -60 21 -93 31 -33 10 -78 23 -100 30 -121 38 -392 93
-580 119 -345 47 -595 56 -860 30z"/>
<path d="M3135 10488 c-81 -155 -175 -352 -175 -368 0 -5 -6 -21 -14 -37 -18
-36 -73 -172 -79 -198 -3 -11 -16 -51 -30 -90 -39 -113 -78 -248 -101 -350
-39 -176 -53 -253 -87 -505 -8 -57 -14 -454 -19 -1220 -4 -624 -10 -1146 -14
-1160 -3 -14 -10 -108 -16 -210 -5 -102 -14 -221 -19 -265 -6 -44 -17 -143
-26 -220 -31 -270 -95 -651 -151 -890 -36 -156 -77 -324 -89 -365 -7 -25 -20
-74 -30 -110 -9 -36 -23 -83 -30 -105 -7 -22 -20 -67 -30 -100 -10 -33 -23
-76 -30 -95 -7 -19 -18 -51 -24 -70 -7 -19 -17 -48 -21 -65 -28 -99 -94 -273
-215 -560 -80 -190 -115 -267 -201 -441 -62 -127 -72 -154 -56 -154 4 0 53 36
107 81 55 44 146 117 203 162 57 45 123 98 146 117 24 19 119 96 212 171 170
137 289 233 425 344 128 105 258 205 266 205 10 0 59 -69 73 -101 6 -13 46
-80 90 -149 43 -69 126 -201 183 -295 57 -93 164 -267 237 -385 73 -118 167
-271 209 -338 42 -68 84 -136 93 -150 10 -15 21 -34 25 -42 28 -54 77 -120 89
-120 13 0 178 150 439 400 44 42 159 150 255 240 96 90 206 194 243 230 38 36
76 69 84 74 20 11 30 -2 145 -188 129 -211 292 -475 303 -494 6 -9 22 -35 35
-57 14 -23 30 -50 37 -60 23 -39 158 -257 173 -280 8 -13 62 -101 120 -195 58
-94 112 -182 120 -195 15 -24 149 -241 185 -299 11 -18 64 -104 118 -192 54
-87 103 -168 110 -179 7 -11 30 -49 53 -85 22 -36 65 -105 95 -153 30 -48 62
-100 71 -115 10 -15 22 -36 28 -47 6 -11 19 -33 30 -50 11 -16 24 -40 30 -53
6 -14 17 -22 27 -20 13 2 134 186 215 325 10 18 135 220 208 338 12 20 154
250 245 399 37 61 190 307 207 334 10 15 22 36 28 47 6 11 18 32 28 46 9 15
51 82 92 149 41 67 83 133 92 148 9 15 23 37 30 49 7 12 47 76 88 143 41 67
84 136 95 154 36 60 220 356 237 384 10 15 22 36 28 47 17 35 65 98 77 102 6
2 48 -31 93 -74 45 -43 103 -98 129 -123 26 -25 105 -99 176 -165 71 -66 145
-136 166 -155 54 -52 335 -317 400 -377 31 -29 63 -53 71 -53 13 0 65 77 171
255 7 11 30 49 53 85 34 54 144 233 187 305 7 11 30 49 53 85 22 36 72 116
110 178 38 62 77 125 86 140 9 15 23 37 30 49 7 13 54 88 103 168 50 80 95
153 100 163 45 75 98 152 106 152 6 0 67 -46 136 -102 69 -57 152 -123 183
-148 93 -73 355 -283 360 -290 3 -3 37 -30 75 -60 39 -30 72 -57 75 -60 3 -3
61 -51 129 -105 68 -55 184 -148 258 -208 126 -101 153 -118 153 -98 0 4 -20
48 -44 97 -80 162 -155 324 -207 447 -28 67 -57 136 -64 152 -21 47 -72 177
-83 210 -6 17 -25 68 -42 115 -17 47 -35 99 -40 115 -5 17 -19 62 -33 100 -55
159 -128 418 -190 670 -93 377 -165 815 -211 1280 -37 366 -39 462 -46 1575
-4 768 -10 1155 -18 1220 -49 388 -98 619 -189 885 -14 39 -28 84 -33 100 -35
130 -291 675 -317 675 -7 0 -71 -78 -143 -172 -171 -227 -213 -277 -387 -469
l-146 -161 47 -97 c138 -280 189 -472 189 -706 0 -363 -148 -680 -439 -937
-108 -96 -352 -232 -489 -273 -33 -10 -70 -21 -83 -26 -52 -20 -226 -49 -362
-60 -80 -7 -150 -16 -156 -21 -8 -6 -9 -21 -4 -46 16 -73 32 -240 37 -389 6
-150 6 -153 32 -170 34 -23 62 -40 81 -50 8 -4 58 -32 110 -63 52 -31 102 -59
110 -63 8 -4 24 -13 35 -20 11 -7 63 -37 115 -67 52 -30 104 -60 115 -67 11
-7 27 -16 35 -20 8 -4 58 -32 110 -63 52 -31 102 -59 110 -63 8 -4 29 -16 45
-27 17 -11 37 -23 45 -27 8 -3 31 -16 50 -28 19 -12 62 -36 95 -54 103 -57
200 -115 207 -126 12 -16 5 -26 -37 -49 -38 -21 -135 -75 -220 -124 -22 -12
-53 -29 -70 -38 -16 -8 -52 -28 -80 -45 -27 -16 -63 -37 -80 -45 -16 -8 -43
-23 -60 -33 -16 -9 -59 -34 -95 -53 -36 -20 -89 -50 -118 -67 -29 -17 -55 -31
-57 -31 -2 0 -38 -20 -79 -45 -42 -25 -79 -45 -81 -45 -3 0 -28 -14 -57 -32
-139 -84 -265 -197 -382 -343 -73 -90 -206 -279 -206 -292 0 -3 -6 -14 -14
-22 -7 -9 -31 -47 -51 -86 -21 -38 -41 -74 -46 -80 -9 -13 -137 -268 -177
-355 -33 -72 -157 -365 -177 -420 -7 -19 -27 -68 -44 -109 -17 -40 -31 -81
-31 -90 0 -9 -5 -22 -11 -28 -6 -6 -14 -26 -19 -44 -5 -19 -18 -59 -30 -89
-12 -30 -26 -68 -30 -85 -5 -16 -40 -122 -78 -235 -38 -113 -84 -252 -102
-310 -18 -58 -38 -123 -45 -145 -7 -22 -21 -67 -30 -100 -10 -33 -23 -78 -30
-100 -7 -22 -20 -67 -30 -100 -10 -33 -24 -80 -31 -105 -8 -25 -27 -92 -44
-150 -16 -58 -37 -130 -46 -160 -20 -66 -37 -127 -58 -200 -79 -274 -148 -495
-157 -506 -17 -21 -28 -17 -35 14 -3 15 -19 70 -35 122 -15 52 -42 142 -59
200 -17 58 -37 128 -45 155 -18 61 -61 210 -105 365 -18 63 -38 133 -45 155
-7 22 -20 67 -30 100 -10 33 -23 78 -30 100 -7 22 -21 67 -30 100 -10 33 -31
101 -46 150 -16 50 -43 135 -60 190 -17 55 -53 165 -80 245 -64 192 -70 209
-85 250 -7 19 -27 76 -44 125 -43 122 -169 446 -190 486 -5 9 -27 61 -50 115
-46 108 -169 360 -226 464 -181 330 -390 601 -559 725 -62 45 -213 140 -255
159 -8 4 -24 12 -35 19 -11 7 -76 44 -145 82 -69 38 -134 75 -145 82 -11 7
-26 15 -34 19 -8 4 -56 31 -105 59 -50 28 -120 67 -156 87 -36 20 -114 63
-174 97 -60 34 -113 61 -117 61 -4 0 -11 5 -14 11 -7 10 21 49 36 49 8 0 140
74 179 100 8 6 22 13 30 17 8 4 71 40 139 80 67 40 125 73 126 73 2 0 59 33
127 73 68 40 130 76 138 80 8 4 24 13 35 20 11 7 63 37 115 67 52 30 104 60
115 67 11 7 27 16 35 20 48 23 216 127 222 136 4 7 8 67 8 134 0 67 6 173 14
235 8 62 16 138 18 168 l3 55 -175 17 c-251 24 -371 53 -570 138 -146 63 -302
171 -425 294 -285 286 -412 672 -346 1051 23 130 37 191 56 245 35 96 88 217
141 322 l24 48 -96 102 c-95 101 -239 270 -339 396 -27 35 -63 81 -80 101 -16
21 -57 74 -90 119 -32 45 -64 82 -71 82 -6 0 -28 -33 -49 -72z"/>
<path d="M4361 9271 c-35 -64 -81 -242 -81 -311 0 -59 32 -184 63 -249 33 -67
149 -197 212 -237 93 -58 168 -91 295 -126 105 -30 397 -32 510 -4 97 24 174
50 228 76 23 11 54 25 68 31 26 9 26 10 9 29 -10 11 -43 33 -74 48 -66 33
-203 108 -246 134 -16 10 -37 21 -45 25 -8 4 -75 43 -148 87 -73 45 -140 86
-150 91 -61 35 -330 220 -456 314 -82 61 -155 111 -162 111 -7 0 -18 -8 -23
-19z"/>
<path d="M8965 9204 c-135 -103 -611 -424 -629 -424 -3 0 -22 -12 -43 -26 -21
-14 -47 -30 -58 -35 -11 -5 -33 -17 -50 -27 -42 -26 -153 -86 -265 -145 -102
-53 -120 -65 -120 -78 0 -9 119 -66 180 -86 173 -54 188 -57 385 -57 196 0
240 7 382 58 265 97 441 321 443 566 0 136 -60 341 -100 339 -8 0 -64 -38
-125 -85z"/>
<path d="M6610 8580 c-41 -10 -93 -25 -114 -35 -120 -52 -311 -215 -415 -355
-65 -88 -158 -266 -189 -365 -86 -267 -112 -463 -112 -831 0 -239 -1 -256 -21
-294 -27 -51 -71 -96 -113 -115 -17 -8 -53 -28 -81 -44 -27 -17 -57 -34 -65
-38 -8 -4 -59 -33 -113 -65 -54 -32 -100 -58 -102 -58 -16 0 -125 -75 -125
-86 0 -7 12 -21 28 -31 198 -123 324 -223 487 -387 108 -108 266 -301 322
-391 162 -264 251 -434 337 -645 25 -60 35 -83 57 -135 5 -11 13 -33 18 -50 5
-16 19 -55 31 -85 12 -30 38 -107 60 -170 21 -63 42 -126 48 -140 6 -14 31
-92 57 -175 26 -82 53 -168 60 -190 7 -22 20 -67 30 -100 38 -131 49 -124 106
65 17 58 37 121 44 140 7 19 27 82 45 140 18 58 36 116 41 129 6 13 27 76 48
140 22 64 43 127 49 141 5 14 17 43 25 65 33 88 79 202 93 228 8 16 14 33 14
38 0 16 186 391 214 432 14 21 26 42 26 46 0 4 14 27 30 49 17 23 30 44 30 48
0 3 16 26 35 52 19 26 49 67 67 92 106 145 235 286 378 410 91 80 258 203 300
223 71 33 99 70 63 84 -10 4 -61 32 -113 63 -52 31 -102 59 -110 63 -8 4 -28
16 -45 27 -16 11 -37 23 -45 27 -8 4 -48 26 -88 50 -40 24 -75 43 -78 43 -18
0 -85 66 -103 100 -20 38 -21 56 -21 272 0 453 -59 778 -188 1038 -39 78 -49
94 -84 141 -16 20 -28 40 -28 44 0 27 -244 263 -309 300 -132 73 -266 116
-360 114 -25 0 -80 -9 -121 -19z"/>
</g>
</svg>
