<?xml version="1.0" standalone="no"?>
<!DOCTYPE svg PUBLIC "-//W3C//DTD SVG 20010904//EN"
 "http://www.w3.org/TR/2001/REC-SVG-20010904/DTD/svg10.dtd">
<svg version="1.0" xmlns="http://www.w3.org/2000/svg"
 width="115.000000pt" height="90.000000pt" viewBox="0 0 115.000000 90.000000"
 preserveAspectRatio="xMidYMid meet">
<metadata>
Created by potrace 1.10, written by Peter Selinger 2001-2011
</metadata>
<g transform="translate(0.000000,90.000000) scale(0.050000,-0.050000)"
fill="#000000" stroke="none">
<path d="M1245 1786 c-25 -5 -45 -17 -45 -27 0 -11 -18 -19 -41 -19 -22 0 -46
-14 -52 -31 -7 -17 -24 -27 -39 -21 -15 6 -34 -1 -42 -15 -9 -15 -74 -65 -146
-113 -139 -94 -416 -363 -474 -461 -19 -32 -40 -59 -47 -59 -7 0 -34 -47 -60
-105 -27 -58 -53 -109 -59 -115 -48 -47 -93 -365 -71 -510 13 -84 160 -274
208 -267 38 5 49 -6 23 -23 -21 -14 3 -19 85 -20 79 0 113 7 110 24 -3 13 13
26 35 28 64 6 150 45 150 69 0 12 8 16 18 10 9 -6 29 3 42 19 31 38 115 37
180 0 74 -42 177 -36 295 19 164 77 236 92 270 57 26 -25 33 -25 61 3 35 35
74 41 74 11 0 -11 9 -20 20 -20 11 0 20 14 20 31 0 17 9 26 21 19 27 -17 245
207 278 287 14 34 34 63 43 63 10 0 18 23 18 51 0 29 9 46 20 39 18 -11 22 -2
28 75 1 14 10 31 20 38 19 14 20 60 1 269 -9 94 -5 158 10 186 28 52 8 144
-22 100 -14 -22 -18 -19 -16 12 7 79 -3 94 -162 251 l-161 159 -274 -3 c-151
-1 -294 -6 -319 -11z m564 -184 c296 -130 338 -658 82 -1035 -157 -232 -416
-287 -386 -83 l9 65 -32 -49 c-193 -292 -523 -330 -497 -57 l9 98 -66 -98
c-168 -251 -473 -362 -601 -220 -70 78 -50 333 40 527 294 629 1001 1047 1442
852z"/>
<path d="M1353 1223 c-68 -74 -17 -203 80 -203 55 0 87 38 87 105 0 125 -93
180 -167 98z"/>
<path d="M1660 1230 c-32 -39 -31 -142 2 -182 38 -46 122 -26 157 37 60 106
-83 236 -159 145z"/>
</g>
</svg>
